<?xml version="1.0" standalone="no"?>
<!DOCTYPE svg PUBLIC "-//W3C//DTD SVG 20010904//EN"
 "http://www.w3.org/TR/2001/REC-SVG-20010904/DTD/svg10.dtd">
<svg version="1.0" xmlns="http://www.w3.org/2000/svg"
 width="151.000000pt" height="28.000000pt" viewBox="0 0 151.000000 28.000000"
 preserveAspectRatio="xMidYMid meet">
<metadata>
Created by potrace 1.10, written by Peter Selinger 2001-2011
</metadata>
<g transform="translate(0.000000,28.000000) scale(0.100000,-0.100000)"
fill="#000000" stroke="none">
<path d="M180 230 c0 -5 11 -10 25 -10 25 0 25 -1 25 -80 0 -64 3 -80 15 -80
12 0 15 16 15 80 0 73 2 80 19 80 11 0 23 5 26 10 4 6 -18 10 -59 10 -37 0
-66 -4 -66 -10z"/>
<path d="M330 150 l0 -90 55 0 c30 0 55 5 55 10 0 6 -17 10 -39 10 -35 0 -39
3 -43 30 -4 28 -3 30 29 30 18 0 33 5 33 10 0 6 -13 10 -30 10 -27 0 -30 3
-30 30 0 28 3 30 35 30 19 0 35 5 35 10 0 6 -22 10 -50 10 l-50 0 0 -90z"/>
<path d="M460 140 c0 -60 -4 -100 -10 -100 -5 0 -10 -7 -10 -15 0 -20 13 -19
33 3 24 26 25 212 2 212 -12 0 -15 -18 -15 -100z"/>
<path d="M543 150 c-25 -69 -29 -90 -18 -90 8 0 18 11 21 26 6 22 11 25 43 22
29 -2 37 -8 39 -25 2 -14 10 -23 22 -23 16 0 15 8 -15 88 -18 48 -39 88 -46
90 -9 1 -25 -29 -46 -88z m62 8 c6 -25 4 -28 -18 -28 -24 0 -25 1 -14 35 11
38 22 36 32 -7z"/>
<path d="M696 221 c-25 -27 -12 -58 30 -79 25 -12 34 -22 32 -37 -3 -21 -26
-25 -60 -10 -13 5 -18 3 -18 -8 0 -31 68 -37 94 -8 26 29 17 63 -21 81 -51 24
-56 68 -6 56 29 -8 51 3 32 15 -24 15 -65 10 -83 -10z"/>
<path d="M828 150 c14 -50 31 -90 37 -90 6 0 17 24 24 52 21 84 26 86 47 14
10 -36 24 -66 29 -66 6 0 22 41 36 90 23 80 24 90 9 90 -12 0 -20 -17 -30 -67
l-14 -68 -20 68 c-11 37 -25 67 -32 67 -6 0 -19 -28 -29 -62 l-18 -63 -13 40
c-7 22 -13 50 -13 63 -1 14 -7 22 -20 22 -17 0 -17 -5 7 -90z"/>
<path d="M1042 150 c-2 -80 -1 -90 15 -90 16 0 18 11 18 90 0 73 -3 90 -15 90
-12 0 -16 -18 -18 -90z"/>
<path d="M1110 150 c0 -72 3 -90 15 -90 10 0 15 16 17 63 l3 62 38 -63 c21
-34 44 -62 50 -62 8 0 13 29 15 90 2 73 -1 90 -12 90 -11 0 -16 -16 -18 -62
l-3 -63 -40 63 c-22 34 -46 62 -52 62 -10 0 -13 -25 -13 -90z"/>
<path d="M1280 150 c0 -79 2 -90 18 -90 15 0 17 11 17 90 0 79 -2 90 -17 90
-16 0 -18 -11 -18 -90z"/>
</g>
</svg>
